{"title":"The Thing (2011) 720p BRRip NL subs DutchReleaseTeam","uid":6957140,"size":3079098014,"categoryP":"video","categoryS":"hd___movies","magnet":"?xt=urn:btih:9273b4b9246ae608f0d91c25e9d5147ae13741fa&amp;dn=The+Thing+%282011%29+720p+BRRip+NL+subs+DutchReleaseTeam&amp;tr=udp%3A%2F%2Ftracker.openbittorrent.com%3A80&amp;tr=udp%3A%2F%2Fopen.demonii.com%3A1337&amp;tr=udp%3A%2F%2Ftracker.coppersurfer.tk%3A6969&amp;tr=udp%3A%2F%2Fexodus.desync.com%3A6969","seeders":0,"leechers":1,"uploader":"Koedje","files":-1,"time":1326587492,"description":" &lt;a href=&quot;http://img88.imageshack.us/img88/3281/thethingo.jpg&quot; rel=&quot;nofollow&quot; target=&quot;_NEW&quot;&gt;http://img88.imageshack.us/img88/3281/thethingo.jpg&lt;/a&gt;\n\n\nVerenigde Staten / Canada\nHorror / Mystery\n103 minuten\n\ngeregisseerd door Matthijs van Heijningen Jr.\nmet Mary Elizabeth Winstead, Eric Christian Olsen en Joel Edgerton\n\nIn een onderzoekskamp op Antartica leidt de ontdekking van een buitenaards schip tot een confrontatie tussen de studente Kate Lloyd en de wetenschapper Dr. Sander Halvorson. Terwijl Dr. Halvorson zich blijft richten op zijn onderzoek gaat Kate samen met de helikopterpiloot Sam Carter op zoek naar de buitenaardse levensvorm.\n\n\n\nNl subs\n\n\n\nScreenshots:\n &lt;a href=&quot;\nhttp://www.hotimg.com/image/ufVsQxB&quot; rel=&quot;nofollow&quot; target=&quot;_NEW&quot;&gt;\nhttp://www.hotimg.com/image/ufVsQxB&lt;/a&gt; &lt;a href=&quot;\nhttp://www.hotimg.com/image/YrgFYjC&quot; rel=&quot;nofollow&quot; target=&quot;_NEW&quot;&gt;\nhttp://www.hotimg.com/image/YrgFYjC&lt;/a&gt; &lt;a href=&quot;\nhttp://www.hotimg.com/image/9VJWkxJ&quot; rel=&quot;nofollow&quot; target=&quot;_NEW&quot;&gt;\nhttp://www.hotimg.com/image/9VJWkxJ&lt;/a&gt; &lt;a href=&quot;\nhttp://www.hotimg.com/image/v8W3uYk&quot; rel=&quot;nofollow&quot; target=&quot;_NEW&quot;&gt;\nhttp://www.hotimg.com/image/v8W3uYk&lt;/a&gt;\n\n\n\n\nINFO;\n\nFormat                                   : Matroska\nFormat version                           : Version 2\nFile size                                : 2.84 GiB\nDuration                                 : 1h 43mn\nOverall bit rate                         : 3 948 Kbps\nEncoded date                             : UTC 2012-01-13 23:03:41\nWriting application                      : mkvmerge v5.2.1 ('A Far Off Place') built on Jan  2 2012 23:21:10\nWriting library                          : libebml v1.2.3 + libmatroska v1.3.0\n\nVideo\nID                                       : 1\nFormat                                   : MPEG-4 Visual\nFormat profile                           : Advanced Simple@L5\nFormat settings, BVOP                    : Yes\nFormat settings, QPel                    : No\nFormat settings, GMC                     : No warppoints\nFormat settings, Matrix                  : Default (H.263)\nCodec ID                                 : XVID\nCodec ID/Hint                            : XviD\nDuration                                 : 1h 43mn\nBit rate                                 : 3 422 Kbps\nWidth                                    : 1 280 pixels\nHeight                                   : 544 pixels\nDisplay aspect ratio                     : 2.35:1\nFrame rate                               : 23.976 fps\nColor space                              : YUV\nChroma subsampling                       : 4:2:0\nBit depth                                : 8 bits\nScan type                                : Progressive\nCompression mode                         : Lossy\nBits/(Pixel*Frame)                       : 0.205\nStream size                              : 2.46 GiB (87%)\nWriting library                          : XviD 64\nDefault                                  : Yes\nForced                                   : No\n\nAudio\nID                                       : 2\nFormat                                   : AC-3\nFormat/Info                              : Audio Coding 3\nMode extension                           : CM (complete main)\nMuxing mode                              : Header stripping\nCodec ID                                 : A_AC3\nDuration                                 : 1h 43mn\nBit rate mode                            : Constant\nBit rate                                 : 448 Kbps\nChannel(s)                               : 6 channels\nChannel positions                        : Front: L C R, Side: L R, LFE\nSampling rate                            : 48.0 KHz\nBit depth                                : 16 bits\nCompression mode                         : Lossy\nStream size                              : 330 MiB (11%)\nDefault                                  : Yes\nForced                                   : No\n\nText\nID                                       : 3\nFormat                                   : UTF-8\nCodec ID                                 : S_TEXT/UTF8\nCodec ID/Info                            : UTF-8 Plain Text\nDefault                                  : Yes\nForced                                   : No\n\n\n\n &lt;a href=&quot;\nhttp://www.imdb.com/title/tt0905372/&quot; rel=&quot;nofollow&quot; target=&quot;_NEW&quot;&gt;\nhttp://www.imdb.com/title/tt0905372/&lt;/a&gt; &lt;a href=&quot;\nhttp://www.moviemeter.nl/film/70576&quot; rel=&quot;nofollow&quot; target=&quot;_NEW&quot;&gt;\nhttp://www.moviemeter.nl/film/70576&lt;/a&gt;\n\n\n\n\nDeze film wordt u aangeboden door het DutchReleaseTeam.\nVoor de reviews van de nieuwste films, muziek, series, games etc\nga dan eens naar http://www.hetmultimediacafe.be/","torrent":{"xt":"urn:btih:9273b4b9246ae608f0d91c25e9d5147ae13741fa","amp;dn":"The+Thing+%282011%29+720p+BRRip+NL+subs+DutchReleaseTeam","amp;tr":["udp%3A%2F%2Ftracker.openbittorrent.com%3A80","udp%3A%2F%2Fopen.demonii.com%3A1337","udp%3A%2F%2Ftracker.coppersurfer.tk%3A6969","udp%3A%2F%2Fexodus.desync.com%3A6969"],"infoHash":"9273b4b9246ae608f0d91c25e9d5147ae13741fa","infoHashBuffer":{"type":"Buffer","data":[146,115,180,185,36,106,230,8,240,217,28,37,233,213,20,122,225,55,65,250]},"announce":[],"urlList":[]}}